<svg width="335" height="82" viewBox="0 0 335 82" fill="none" xmlns="http://www.w3.org/2000/svg">
<g filter="url(#filter0_d_753_4922)">
<g filter="url(#filter1_d_753_4922)">
<rect x="4.6543" y="4" width="326" height="74" rx="20" fill="#4589FF" shape-rendering="crispEdges"/>
<path d="M42.2935 38H40.4441C40.3347 37.468 40.1433 37.0007 39.8699 36.598C39.6014 36.1953 39.2733 35.8572 38.8855 35.5838C38.5027 35.3054 38.0776 35.0966 37.6103 34.9574C37.1429 34.8182 36.6557 34.7486 36.1486 34.7486C35.2239 34.7486 34.3862 34.9822 33.6355 35.4496C32.8897 35.9169 32.2956 36.6055 31.8532 37.5153C31.4157 38.4251 31.1969 39.5412 31.1969 40.8636C31.1969 42.1861 31.4157 43.3022 31.8532 44.212C32.2956 45.1218 32.8897 45.8104 33.6355 46.2777C34.3862 46.745 35.2239 46.9787 36.1486 46.9787C36.6557 46.9787 37.1429 46.9091 37.6103 46.7699C38.0776 46.6307 38.5027 46.4244 38.8855 46.1509C39.2733 45.8725 39.6014 45.532 39.8699 45.1293C40.1433 44.7216 40.3347 44.2543 40.4441 43.7273H42.2935C42.1543 44.5078 41.9007 45.2063 41.5328 45.8228C41.165 46.4393 40.7076 46.9638 40.1607 47.3963C39.6138 47.8239 38.9998 48.1495 38.3187 48.3732C37.6426 48.5969 36.9192 48.7088 36.1486 48.7088C34.8461 48.7088 33.6877 48.3906 32.6735 47.7543C31.6593 47.1179 30.8613 46.2131 30.2797 45.0398C29.698 43.8665 29.4071 42.4744 29.4071 40.8636C29.4071 39.2528 29.698 37.8608 30.2797 36.6875C30.8613 35.5142 31.6593 34.6094 32.6735 33.973C33.6877 33.3366 34.8461 33.0185 36.1486 33.0185C36.9192 33.0185 37.6426 33.1303 38.3187 33.354C38.9998 33.5778 39.6138 33.9059 40.1607 34.3384C40.7076 34.766 41.165 35.288 41.5328 35.9045C41.9007 36.516 42.1543 37.2145 42.2935 38ZM49.6968 48.7386C48.6627 48.7386 47.7554 48.4925 46.9749 48.0004C46.1993 47.5082 45.5928 46.8196 45.1553 45.9347C44.7227 45.0497 44.5065 44.0156 44.5065 42.8324C44.5065 41.6392 44.7227 40.5977 45.1553 39.7077C45.5928 38.8178 46.1993 38.1268 46.9749 37.6346C47.7554 37.1424 48.6627 36.8963 49.6968 36.8963C50.7309 36.8963 51.6357 37.1424 52.4113 37.6346C53.1919 38.1268 53.7984 38.8178 54.2309 39.7077C54.6684 40.5977 54.8872 41.6392 54.8872 42.8324C54.8872 44.0156 54.6684 45.0497 54.2309 45.9347C53.7984 46.8196 53.1919 47.5082 52.4113 48.0004C51.6357 48.4925 50.7309 48.7386 49.6968 48.7386ZM49.6968 47.1577C50.4823 47.1577 51.1286 46.9563 51.6357 46.5536C52.1428 46.1509 52.5182 45.6214 52.7618 44.9652C53.0054 44.3089 53.1272 43.598 53.1272 42.8324C53.1272 42.0668 53.0054 41.3533 52.7618 40.6921C52.5182 40.0309 52.1428 39.4964 51.6357 39.0888C51.1286 38.6811 50.4823 38.4773 49.6968 38.4773C48.9113 38.4773 48.265 38.6811 47.7579 39.0888C47.2508 39.4964 46.8754 40.0309 46.6318 40.6921C46.3882 41.3533 46.2664 42.0668 46.2664 42.8324C46.2664 43.598 46.3882 44.3089 46.6318 44.9652C46.8754 45.6214 47.2508 46.1509 47.7579 46.5536C48.265 46.9563 48.9113 47.1577 49.6968 47.1577ZM59.3336 41.6094V48.5H57.5737V37.0455H59.274V38.8352H59.4231C59.6916 38.2536 60.0993 37.7862 60.6461 37.4332C61.193 37.0753 61.899 36.8963 62.764 36.8963C63.5396 36.8963 64.2182 37.0554 64.7999 37.3736C65.3816 37.6868 65.834 38.1641 66.1571 38.8054C66.4803 39.4418 66.6419 40.2472 66.6419 41.2216V48.5H64.8819V41.3409C64.8819 40.4411 64.6483 39.7401 64.1809 39.2379C63.7136 38.7308 63.0723 38.4773 62.2569 38.4773C61.6951 38.4773 61.193 38.5991 60.7505 38.8427C60.313 39.0863 59.9675 39.4418 59.714 39.9091C59.4604 40.3764 59.3336 40.9432 59.3336 41.6094ZM74.8394 37.0455V38.5369H68.9033V37.0455H74.8394ZM70.6334 34.3011H72.3934V45.2188C72.3934 45.7159 72.4655 46.0888 72.6096 46.3374C72.7588 46.581 72.9477 46.745 73.1764 46.8295C73.4101 46.9091 73.6562 46.9489 73.9147 46.9489C74.1086 46.9489 74.2677 46.9389 74.392 46.919C74.5162 46.8942 74.6157 46.8743 74.6903 46.8594L75.0482 48.4403C74.9289 48.4851 74.7623 48.5298 74.5486 48.5746C74.3348 48.6243 74.0638 48.6491 73.7357 48.6491C73.2385 48.6491 72.7513 48.5423 72.2741 48.3285C71.8018 48.1147 71.409 47.7891 71.0958 47.3516C70.7876 46.9141 70.6334 46.3622 70.6334 45.696V34.3011ZM80.8575 48.7685C80.1317 48.7685 79.4729 48.6317 78.8813 48.3583C78.2897 48.0799 77.8199 47.6797 77.4719 47.1577C77.1238 46.6307 76.9498 45.9943 76.9498 45.2486C76.9498 44.5923 77.0791 44.0604 77.3376 43.6527C77.5961 43.2401 77.9417 42.9169 78.3742 42.6832C78.8067 42.4496 79.284 42.2756 79.806 42.1612C80.333 42.0419 80.8625 41.9474 81.3944 41.8778C82.0905 41.7884 82.6547 41.7212 83.0873 41.6765C83.5248 41.6268 83.843 41.5447 84.0418 41.4304C84.2456 41.3161 84.3476 41.1172 84.3476 40.8338V40.7741C84.3476 40.0384 84.1462 39.4666 83.7435 39.0589C83.3458 38.6513 82.7417 38.4474 81.9314 38.4474C81.0912 38.4474 80.4324 38.6314 79.9552 38.9993C79.4779 39.3672 79.1423 39.7599 78.9484 40.1776L77.278 39.581C77.5763 38.8849 77.974 38.343 78.4711 37.9553C78.9733 37.5625 79.5202 37.2891 80.1118 37.1349C80.7084 36.9759 81.295 36.8963 81.8717 36.8963C82.2396 36.8963 82.6622 36.9411 83.1395 37.0305C83.6217 37.1151 84.0866 37.2915 84.534 37.56C84.9864 37.8285 85.3618 38.2337 85.6601 38.7756C85.9584 39.3175 86.1075 40.0433 86.1075 40.9531V48.5H84.3476V46.9489H84.2581C84.1388 47.1974 83.9399 47.4634 83.6615 47.7468C83.3831 48.0302 83.0127 48.2713 82.5503 48.4702C82.088 48.669 81.5237 48.7685 80.8575 48.7685ZM81.126 47.1875C81.822 47.1875 82.4086 47.0508 82.8859 46.7773C83.3682 46.5039 83.7311 46.1509 83.9747 45.7184C84.2233 45.2859 84.3476 44.831 84.3476 44.3537V42.7429C84.273 42.8324 84.1089 42.9144 83.8554 42.989C83.6068 43.0586 83.3184 43.1207 82.9903 43.1754C82.6672 43.2251 82.3515 43.2699 82.0432 43.3097C81.74 43.3445 81.4939 43.3743 81.305 43.3991C80.8476 43.4588 80.42 43.5558 80.0223 43.69C79.6295 43.8192 79.3113 44.0156 79.0677 44.2791C78.8291 44.5376 78.7098 44.8906 78.7098 45.3381C78.7098 45.9496 78.936 46.4119 79.3884 46.7251C79.8458 47.0334 80.425 47.1875 81.126 47.1875ZM93.9732 48.7386C92.8993 48.7386 91.9746 48.4851 91.199 47.978C90.4235 47.4709 89.8269 46.7724 89.4093 45.8825C88.9917 44.9925 88.7828 43.9759 88.7828 42.8324C88.7828 41.669 88.9966 40.6424 89.4242 39.7525C89.8567 38.8576 90.4583 38.1591 91.2289 37.657C92.0044 37.1499 92.9093 36.8963 93.9434 36.8963C94.7488 36.8963 95.4746 37.0455 96.1209 37.3438C96.7672 37.642 97.2967 38.0597 97.7093 38.5966C98.122 39.1335 98.378 39.7599 98.4775 40.4759H96.7175C96.5833 39.9538 96.285 39.4915 95.8226 39.0888C95.3652 38.6811 94.7488 38.4773 93.9732 38.4773C93.2871 38.4773 92.6855 38.6562 92.1685 39.0142C91.6564 39.3672 91.2562 39.8668 90.9679 40.5131C90.6845 41.1545 90.5428 41.9077 90.5428 42.7727C90.5428 43.6577 90.682 44.4283 90.9604 45.0845C91.2438 45.7408 91.6415 46.2504 92.1536 46.6133C92.6706 46.9762 93.2772 47.1577 93.9732 47.1577C94.4306 47.1577 94.8457 47.0781 95.2186 46.919C95.5914 46.7599 95.9071 46.5312 96.1657 46.233C96.4242 45.9347 96.6081 45.5767 96.7175 45.1591H98.4775C98.378 45.8352 98.1319 46.4442 97.7392 46.9862C97.3514 47.5231 96.8368 47.9506 96.1955 48.2688C95.5591 48.582 94.8184 48.7386 93.9732 48.7386ZM106.032 37.0455V38.5369H100.096V37.0455H106.032ZM101.826 34.3011H103.586V45.2188C103.586 45.7159 103.658 46.0888 103.802 46.3374C103.951 46.581 104.14 46.745 104.369 46.8295C104.602 46.9091 104.849 46.9489 105.107 46.9489C105.301 46.9489 105.46 46.9389 105.584 46.919C105.709 46.8942 105.808 46.8743 105.883 46.8594L106.241 48.4403C106.121 48.4851 105.955 48.5298 105.741 48.5746C105.527 48.6243 105.256 48.6491 104.928 48.6491C104.431 48.6491 103.944 48.5423 103.466 48.3285C102.994 48.1147 102.601 47.7891 102.288 47.3516C101.98 46.9141 101.826 46.3622 101.826 45.696V34.3011ZM122.699 39.6108L121.118 40.0582C121.019 39.7947 120.872 39.5387 120.678 39.2901C120.489 39.0366 120.231 38.8278 119.903 38.6637C119.574 38.4996 119.154 38.4176 118.642 38.4176C117.941 38.4176 117.357 38.5792 116.89 38.9023C116.427 39.2205 116.196 39.6257 116.196 40.1179C116.196 40.5554 116.355 40.9009 116.673 41.1545C116.992 41.408 117.489 41.6193 118.165 41.7884L119.865 42.206C120.889 42.4545 121.653 42.8349 122.155 43.3469C122.657 43.854 122.908 44.5078 122.908 45.3082C122.908 45.9645 122.719 46.5511 122.341 47.0682C121.968 47.5852 121.446 47.9929 120.775 48.2912C120.104 48.5895 119.323 48.7386 118.433 48.7386C117.265 48.7386 116.298 48.4851 115.532 47.978C114.767 47.4709 114.282 46.7301 114.078 45.7557L115.749 45.3381C115.908 45.9545 116.209 46.4169 116.651 46.7251C117.099 47.0334 117.683 47.1875 118.404 47.1875C119.224 47.1875 119.875 47.0135 120.357 46.6655C120.845 46.3125 121.088 45.8899 121.088 45.3977C121.088 45 120.949 44.6669 120.671 44.3984C120.392 44.125 119.965 43.9212 119.388 43.7869L117.479 43.3395C116.43 43.0909 115.659 42.7056 115.167 42.1836C114.68 41.6566 114.436 40.9979 114.436 40.2074C114.436 39.5611 114.618 38.9893 114.981 38.4922C115.349 37.995 115.848 37.6048 116.48 37.3214C117.116 37.038 117.837 36.8963 118.642 36.8963C119.776 36.8963 120.666 37.1449 121.312 37.642C121.963 38.1392 122.426 38.7955 122.699 39.6108ZM132.776 43.8168V37.0455H134.536V48.5H132.776V46.5611H132.657C132.388 47.1428 131.97 47.6374 131.404 48.0451C130.837 48.4478 130.121 48.6491 129.256 48.6491C128.54 48.6491 127.904 48.4925 127.347 48.1793C126.79 47.8612 126.353 47.3839 126.034 46.7475C125.716 46.1062 125.557 45.2983 125.557 44.3239V37.0455H127.317V44.2045C127.317 45.0398 127.551 45.706 128.018 46.2031C128.49 46.7003 129.092 46.9489 129.823 46.9489C130.26 46.9489 130.705 46.837 131.158 46.6133C131.615 46.3896 131.998 46.0465 132.306 45.5842C132.619 45.1218 132.776 44.5327 132.776 43.8168ZM142.413 48.7386C141.339 48.7386 140.414 48.4851 139.638 47.978C138.863 47.4709 138.266 46.7724 137.849 45.8825C137.431 44.9925 137.222 43.9759 137.222 42.8324C137.222 41.669 137.436 40.6424 137.864 39.7525C138.296 38.8576 138.898 38.1591 139.668 37.657C140.444 37.1499 141.349 36.8963 142.383 36.8963C143.188 36.8963 143.914 37.0455 144.56 37.3438C145.207 37.642 145.736 38.0597 146.149 38.5966C146.561 39.1335 146.817 39.7599 146.917 40.4759H145.157C145.023 39.9538 144.724 39.4915 144.262 39.0888C143.805 38.6811 143.188 38.4773 142.413 38.4773C141.727 38.4773 141.125 38.6562 140.608 39.0142C140.096 39.3672 139.696 39.8668 139.407 40.5131C139.124 41.1545 138.982 41.9077 138.982 42.7727C138.982 43.6577 139.121 44.4283 139.4 45.0845C139.683 45.7408 140.081 46.2504 140.593 46.6133C141.11 46.9762 141.717 47.1577 142.413 47.1577C142.87 47.1577 143.285 47.0781 143.658 46.919C144.031 46.7599 144.347 46.5312 144.605 46.233C144.864 45.9347 145.048 45.5767 145.157 45.1591H146.917C146.817 45.8352 146.571 46.4442 146.179 46.9862C145.791 47.5231 145.276 47.9506 144.635 48.2688C143.999 48.582 143.258 48.7386 142.413 48.7386ZM154.143 48.7386C153.069 48.7386 152.145 48.4851 151.369 47.978C150.593 47.4709 149.997 46.7724 149.579 45.8825C149.162 44.9925 148.953 43.9759 148.953 42.8324C148.953 41.669 149.167 40.6424 149.594 39.7525C150.027 38.8576 150.628 38.1591 151.399 37.657C152.174 37.1499 153.079 36.8963 154.113 36.8963C154.919 36.8963 155.645 37.0455 156.291 37.3438C156.937 37.642 157.467 38.0597 157.879 38.5966C158.292 39.1335 158.548 39.7599 158.647 40.4759H156.887C156.753 39.9538 156.455 39.4915 155.993 39.0888C155.535 38.6811 154.919 38.4773 154.143 38.4773C153.457 38.4773 152.855 38.6562 152.338 39.0142C151.826 39.3672 151.426 39.8668 151.138 40.5131C150.854 41.1545 150.713 41.9077 150.713 42.7727C150.713 43.6577 150.852 44.4283 151.13 45.0845C151.414 45.7408 151.811 46.2504 152.324 46.6133C152.841 46.9762 153.447 47.1577 154.143 47.1577C154.6 47.1577 155.016 47.0781 155.388 46.919C155.761 46.7599 156.077 46.5312 156.336 46.233C156.594 45.9347 156.778 45.5767 156.887 45.1591H158.647C158.548 45.8352 158.302 46.4442 157.909 46.9862C157.521 47.5231 157.007 47.9506 156.365 48.2688C155.729 48.582 154.988 48.7386 154.143 48.7386ZM166.023 48.7386C164.919 48.7386 163.967 48.495 163.167 48.0078C162.371 47.5156 161.757 46.8295 161.325 45.9496C160.897 45.0646 160.683 44.0355 160.683 42.8622C160.683 41.6889 160.897 40.6548 161.325 39.7599C161.757 38.8601 162.359 38.1591 163.129 37.657C163.905 37.1499 164.81 36.8963 165.844 36.8963C166.44 36.8963 167.029 36.9957 167.611 37.1946C168.193 37.3935 168.722 37.7166 169.2 38.1641C169.677 38.6065 170.057 39.1932 170.341 39.924C170.624 40.6548 170.766 41.5547 170.766 42.6236V43.3693H161.936V41.848H168.976C168.976 41.2017 168.847 40.625 168.588 40.1179C168.335 39.6108 167.972 39.2106 167.499 38.9173C167.032 38.6239 166.48 38.4773 165.844 38.4773C165.143 38.4773 164.536 38.6513 164.024 38.9993C163.517 39.3423 163.127 39.7898 162.853 40.3416C162.58 40.8935 162.443 41.4851 162.443 42.1165V43.1307C162.443 43.9957 162.592 44.729 162.891 45.3306C163.194 45.9272 163.614 46.3821 164.151 46.6953C164.688 47.0036 165.312 47.1577 166.023 47.1577C166.485 47.1577 166.903 47.093 167.276 46.9638C167.653 46.8295 167.979 46.6307 168.252 46.3672C168.526 46.0987 168.737 45.7656 168.886 45.3679L170.587 45.8452C170.408 46.4219 170.107 46.929 169.684 47.3665C169.262 47.799 168.74 48.1371 168.118 48.3807C167.497 48.6193 166.798 48.7386 166.023 48.7386ZM181.556 39.6108L179.975 40.0582C179.876 39.7947 179.729 39.5387 179.536 39.2901C179.347 39.0366 179.088 38.8278 178.76 38.6637C178.432 38.4996 178.012 38.4176 177.5 38.4176C176.799 38.4176 176.214 38.5792 175.747 38.9023C175.285 39.2205 175.054 39.6257 175.054 40.1179C175.054 40.5554 175.213 40.9009 175.531 41.1545C175.849 41.408 176.346 41.6193 177.022 41.7884L178.723 42.206C179.747 42.4545 180.51 42.8349 181.012 43.3469C181.514 43.854 181.765 44.5078 181.765 45.3082C181.765 45.9645 181.576 46.5511 181.199 47.0682C180.826 47.5852 180.304 47.9929 179.632 48.2912C178.961 48.5895 178.181 48.7386 177.291 48.7386C176.123 48.7386 175.156 48.4851 174.39 47.978C173.624 47.4709 173.14 46.7301 172.936 45.7557L174.606 45.3381C174.765 45.9545 175.066 46.4169 175.509 46.7251C175.956 47.0334 176.54 47.1875 177.261 47.1875C178.081 47.1875 178.733 47.0135 179.215 46.6655C179.702 46.3125 179.946 45.8899 179.946 45.3977C179.946 45 179.806 44.6669 179.528 44.3984C179.25 44.125 178.822 43.9212 178.245 43.7869L176.336 43.3395C175.287 43.0909 174.517 42.7056 174.025 42.1836C173.537 41.6566 173.294 40.9979 173.294 40.2074C173.294 39.5611 173.475 38.9893 173.838 38.4922C174.206 37.995 174.706 37.6048 175.337 37.3214C175.973 37.038 176.694 36.8963 177.5 36.8963C178.633 36.8963 179.523 37.1449 180.169 37.642C180.821 38.1392 181.283 38.7955 181.556 39.6108ZM189.515 37.0455V38.5369H183.341V37.0455H189.515ZM185.19 48.5V35.4645C185.19 34.8082 185.344 34.2614 185.652 33.8239C185.961 33.3864 186.361 33.0582 186.853 32.8395C187.345 32.6207 187.865 32.5114 188.412 32.5114C188.844 32.5114 189.197 32.5462 189.471 32.6158C189.744 32.6854 189.948 32.75 190.082 32.8097L189.575 34.331C189.486 34.3011 189.361 34.2638 189.202 34.2191C189.048 34.1744 188.844 34.152 188.591 34.152C188.009 34.152 187.589 34.2986 187.33 34.592C187.077 34.8853 186.95 35.3153 186.95 35.8821V48.5H185.19ZM199.201 43.8168V37.0455H200.961V48.5H199.201V46.5611H199.081C198.813 47.1428 198.395 47.6374 197.828 48.0451C197.262 48.4478 196.546 48.6491 195.681 48.6491C194.965 48.6491 194.328 48.4925 193.772 48.1793C193.215 47.8612 192.777 47.3839 192.459 46.7475C192.141 46.1062 191.982 45.2983 191.982 44.3239V37.0455H193.742V44.2045C193.742 45.0398 193.975 45.706 194.443 46.2031C194.915 46.7003 195.517 46.9489 196.248 46.9489C196.685 46.9489 197.13 46.837 197.582 46.6133C198.04 46.3896 198.423 46.0465 198.731 45.5842C199.044 45.1218 199.201 44.5327 199.201 43.8168ZM205.944 33.2273V48.5H204.184V33.2273H205.944ZM210.927 33.2273V48.5H209.167V33.2273H210.927ZM215.284 52.7955C214.986 52.7955 214.72 52.7706 214.486 52.7209C214.253 52.6761 214.091 52.6314 214.002 52.5866L214.449 51.0355C214.877 51.1449 215.255 51.1847 215.583 51.1548C215.911 51.125 216.202 50.9783 216.455 50.7148C216.714 50.4563 216.95 50.0362 217.164 49.4545L217.492 48.5597L213.256 37.0455H215.165L218.327 46.1733H218.446L221.608 37.0455H223.517L218.655 50.1705C218.436 50.7621 218.165 51.2518 217.842 51.6396C217.519 52.0323 217.144 52.3232 216.716 52.5121C216.294 52.701 215.816 52.7955 215.284 52.7955ZM236.4 48.7386C235.326 48.7386 234.401 48.4851 233.626 47.978C232.85 47.4709 232.254 46.7724 231.836 45.8825C231.418 44.9925 231.21 43.9759 231.21 42.8324C231.21 41.669 231.423 40.6424 231.851 39.7525C232.283 38.8576 232.885 38.1591 233.656 37.657C234.431 37.1499 235.336 36.8963 236.37 36.8963C237.176 36.8963 237.901 37.0455 238.548 37.3438C239.194 37.642 239.723 38.0597 240.136 38.5966C240.549 39.1335 240.805 39.7599 240.904 40.4759H239.144C239.01 39.9538 238.712 39.4915 238.249 39.0888C237.792 38.6811 237.176 38.4773 236.4 38.4773C235.714 38.4773 235.112 38.6562 234.595 39.0142C234.083 39.3672 233.683 39.8668 233.395 40.5131C233.111 41.1545 232.97 41.9077 232.97 42.7727C232.97 43.6577 233.109 44.4283 233.387 45.0845C233.671 45.7408 234.068 46.2504 234.58 46.6133C235.097 46.9762 235.704 47.1577 236.4 47.1577C236.857 47.1577 237.272 47.0781 237.645 46.919C238.018 46.7599 238.334 46.5312 238.592 46.233C238.851 45.9347 239.035 45.5767 239.144 45.1591H240.904C240.805 45.8352 240.559 46.4442 240.166 46.9862C239.778 47.5231 239.264 47.9506 238.622 48.2688C237.986 48.582 237.245 48.7386 236.4 48.7386ZM243.477 48.5V37.0455H245.177V38.7756H245.297C245.505 38.2088 245.883 37.7489 246.43 37.396C246.977 37.043 247.593 36.8665 248.28 36.8665C248.409 36.8665 248.57 36.869 248.764 36.8739C248.958 36.8789 249.105 36.8864 249.204 36.8963V38.6861C249.145 38.6712 249.008 38.6488 248.794 38.619C248.585 38.5842 248.364 38.5668 248.13 38.5668C247.574 38.5668 247.076 38.6836 246.639 38.9173C246.206 39.146 245.863 39.4641 245.61 39.8718C245.361 40.2745 245.237 40.7344 245.237 41.2514V48.5H243.477ZM255.744 48.7386C254.641 48.7386 253.689 48.495 252.888 48.0078C252.093 47.5156 251.479 46.8295 251.046 45.9496C250.619 45.0646 250.405 44.0355 250.405 42.8622C250.405 41.6889 250.619 40.6548 251.046 39.7599C251.479 38.8601 252.08 38.1591 252.851 37.657C253.627 37.1499 254.531 36.8963 255.565 36.8963C256.162 36.8963 256.751 36.9957 257.333 37.1946C257.915 37.3935 258.444 37.7166 258.921 38.1641C259.399 38.6065 259.779 39.1932 260.062 39.924C260.346 40.6548 260.487 41.5547 260.487 42.6236V43.3693H251.658V41.848H258.698C258.698 41.2017 258.568 40.625 258.31 40.1179C258.056 39.6108 257.693 39.2106 257.221 38.9173C256.754 38.6239 256.202 38.4773 255.565 38.4773C254.864 38.4773 254.258 38.6513 253.746 38.9993C253.239 39.3423 252.848 39.7898 252.575 40.3416C252.302 40.8935 252.165 41.4851 252.165 42.1165V43.1307C252.165 43.9957 252.314 44.729 252.612 45.3306C252.916 45.9272 253.336 46.3821 253.873 46.6953C254.41 47.0036 255.033 47.1577 255.744 47.1577C256.207 47.1577 256.624 47.093 256.997 46.9638C257.375 46.8295 257.701 46.6307 257.974 46.3672C258.248 46.0987 258.459 45.7656 258.608 45.3679L260.308 45.8452C260.129 46.4219 259.829 46.929 259.406 47.3665C258.983 47.799 258.461 48.1371 257.84 48.3807C257.218 48.6193 256.52 48.7386 255.744 48.7386ZM266.535 48.7685C265.809 48.7685 265.151 48.6317 264.559 48.3583C263.967 48.0799 263.498 47.6797 263.15 47.1577C262.802 46.6307 262.628 45.9943 262.628 45.2486C262.628 44.5923 262.757 44.0604 263.015 43.6527C263.274 43.2401 263.619 42.9169 264.052 42.6832C264.484 42.4496 264.962 42.2756 265.484 42.1612C266.011 42.0419 266.54 41.9474 267.072 41.8778C267.768 41.7884 268.332 41.7212 268.765 41.6765C269.203 41.6268 269.521 41.5447 269.72 41.4304C269.923 41.3161 270.025 41.1172 270.025 40.8338V40.7741C270.025 40.0384 269.824 39.4666 269.421 39.0589C269.024 38.6513 268.419 38.4474 267.609 38.4474C266.769 38.4474 266.11 38.6314 265.633 38.9993C265.156 39.3672 264.82 39.7599 264.626 40.1776L262.956 39.581C263.254 38.8849 263.652 38.343 264.149 37.9553C264.651 37.5625 265.198 37.2891 265.79 37.1349C266.386 36.9759 266.973 36.8963 267.549 36.8963C267.917 36.8963 268.34 36.9411 268.817 37.0305C269.299 37.1151 269.764 37.2915 270.212 37.56C270.664 37.8285 271.04 38.2337 271.338 38.7756C271.636 39.3175 271.785 40.0433 271.785 40.9531V48.5H270.025V46.9489H269.936C269.816 47.1974 269.618 47.4634 269.339 47.7468C269.061 48.0302 268.69 48.2713 268.228 48.4702C267.766 48.669 267.201 48.7685 266.535 48.7685ZM266.804 47.1875C267.5 47.1875 268.086 47.0508 268.564 46.7773C269.046 46.5039 269.409 46.1509 269.652 45.7184C269.901 45.2859 270.025 44.831 270.025 44.3537V42.7429C269.951 42.8324 269.787 42.9144 269.533 42.989C269.285 43.0586 268.996 43.1207 268.668 43.1754C268.345 43.2251 268.029 43.2699 267.721 43.3097C267.418 43.3445 267.172 43.3743 266.983 43.3991C266.525 43.4588 266.098 43.5558 265.7 43.69C265.307 43.8192 264.989 44.0156 264.745 44.2791C264.507 44.5376 264.388 44.8906 264.388 45.3381C264.388 45.9496 264.614 46.4119 265.066 46.7251C265.524 47.0334 266.103 47.1875 266.804 47.1875ZM279.979 37.0455V38.5369H274.043V37.0455H279.979ZM275.773 34.3011H277.533V45.2188C277.533 45.7159 277.605 46.0888 277.749 46.3374C277.898 46.581 278.087 46.745 278.316 46.8295C278.55 46.9091 278.796 46.9489 279.054 46.9489C279.248 46.9489 279.407 46.9389 279.532 46.919C279.656 46.8942 279.755 46.8743 279.83 46.8594L280.188 48.4403C280.069 48.4851 279.902 48.5298 279.688 48.5746C279.474 48.6243 279.203 48.6491 278.875 48.6491C278.378 48.6491 277.891 48.5423 277.414 48.3285C276.941 48.1147 276.549 47.7891 276.235 47.3516C275.927 46.9141 275.773 46.3622 275.773 45.696V34.3011ZM287.306 48.7386C286.202 48.7386 285.25 48.495 284.45 48.0078C283.654 47.5156 283.04 46.8295 282.608 45.9496C282.18 45.0646 281.966 44.0355 281.966 42.8622C281.966 41.6889 282.18 40.6548 282.608 39.7599C283.04 38.8601 283.642 38.1591 284.412 37.657C285.188 37.1499 286.093 36.8963 287.127 36.8963C287.724 36.8963 288.313 36.9957 288.894 37.1946C289.476 37.3935 290.006 37.7166 290.483 38.1641C290.96 38.6065 291.34 39.1932 291.624 39.924C291.907 40.6548 292.049 41.5547 292.049 42.6236V43.3693H283.219V41.848H290.259C290.259 41.2017 290.13 40.625 289.871 40.1179C289.618 39.6108 289.255 39.2106 288.782 38.9173C288.315 38.6239 287.763 38.4773 287.127 38.4773C286.426 38.4773 285.819 38.6513 285.307 38.9993C284.8 39.3423 284.41 39.7898 284.137 40.3416C283.863 40.8935 283.726 41.4851 283.726 42.1165V43.1307C283.726 43.9957 283.876 44.729 284.174 45.3306C284.477 45.9272 284.897 46.3821 285.434 46.6953C285.971 47.0036 286.595 47.1577 287.306 47.1577C287.768 47.1577 288.186 47.093 288.559 46.9638C288.937 46.8295 289.262 46.6307 289.536 46.3672C289.809 46.0987 290.02 45.7656 290.17 45.3679L291.87 45.8452C291.691 46.4219 291.39 46.929 290.968 47.3665C290.545 47.799 290.023 48.1371 289.401 48.3807C288.78 48.6193 288.081 48.7386 287.306 48.7386ZM299.051 48.7386C298.097 48.7386 297.254 48.4975 296.523 48.0153C295.792 47.5281 295.221 46.842 294.808 45.957C294.395 45.0671 294.189 44.0156 294.189 42.8026C294.189 41.5994 294.395 40.5554 294.808 39.6705C295.221 38.7855 295.795 38.1019 296.531 37.6197C297.267 37.1374 298.117 36.8963 299.081 36.8963C299.827 36.8963 300.416 37.0206 300.849 37.2692C301.286 37.5128 301.619 37.7912 301.848 38.1044C302.081 38.4126 302.263 38.6662 302.392 38.8651H302.541V33.2273H304.301V48.5H302.601V46.7401H302.392C302.263 46.9489 302.079 47.2124 301.84 47.5305C301.602 47.8437 301.261 48.1246 300.819 48.3732C300.376 48.6168 299.787 48.7386 299.051 48.7386ZM299.29 47.1577C299.996 47.1577 300.593 46.9737 301.08 46.6058C301.567 46.233 301.937 45.7184 302.191 45.0621C302.444 44.4009 302.571 43.6378 302.571 42.7727C302.571 41.9176 302.447 41.1694 302.198 40.5281C301.95 39.8817 301.582 39.3796 301.095 39.0217C300.607 38.6587 300.006 38.4773 299.29 38.4773C298.544 38.4773 297.923 38.6687 297.426 39.0515C296.933 39.4293 296.563 39.9439 296.314 40.5952C296.071 41.2415 295.949 41.9673 295.949 42.7727C295.949 43.5881 296.073 44.3288 296.322 44.995C296.575 45.6562 296.948 46.1832 297.441 46.576C297.938 46.9638 298.554 47.1577 299.29 47.1577Z" fill="white"/>
</g>
</g>
<defs>
<filter id="filter0_d_753_4922" x="0.654297" y="0" width="334" height="82" filterUnits="userSpaceOnUse" color-interpolation-filters="sRGB">
<feFlood flood-opacity="0" result="BackgroundImageFix"/>
<feColorMatrix in="SourceAlpha" type="matrix" values="0 0 0 0 0 0 0 0 0 0 0 0 0 0 0 0 0 0 127 0" result="hardAlpha"/>
<feOffset/>
<feGaussianBlur stdDeviation="2"/>
<feColorMatrix type="matrix" values="0 0 0 0 0 0 0 0 0 0 0 0 0 0 0 0 0 0 0.1 0"/>
<feBlend mode="normal" in2="BackgroundImageFix" result="effect1_dropShadow_753_4922"/>
<feBlend mode="normal" in="SourceGraphic" in2="effect1_dropShadow_753_4922" result="shape"/>
</filter>
<filter id="filter1_d_753_4922" x="0.654297" y="0" width="334" height="82" filterUnits="userSpaceOnUse" color-interpolation-filters="sRGB">
<feFlood flood-opacity="0" result="BackgroundImageFix"/>
<feColorMatrix in="SourceAlpha" type="matrix" values="0 0 0 0 0 0 0 0 0 0 0 0 0 0 0 0 0 0 127 0" result="hardAlpha"/>
<feOffset/>
<feGaussianBlur stdDeviation="2"/>
<feComposite in2="hardAlpha" operator="out"/>
<feColorMatrix type="matrix" values="0 0 0 0 0 0 0 0 0 0 0 0 0 0 0 0 0 0 0.15 0"/>
<feBlend mode="normal" in2="BackgroundImageFix" result="effect1_dropShadow_753_4922"/>
<feBlend mode="normal" in="SourceGraphic" in2="effect1_dropShadow_753_4922" result="shape"/>
</filter>
</defs>
</svg>
