<svg width="16" height="13" viewBox="0 0 16 13" fill="none" xmlns="http://www.w3.org/2000/svg">
<path d="M5.55 9.63291L14.025 1.15791C14.225 0.95791 14.4625 0.85791 14.7375 0.85791C15.0125 0.85791 15.25 0.95791 15.45 1.15791C15.65 1.35791 15.75 1.59541 15.75 1.87041C15.75 2.14541 15.65 2.38291 15.45 2.58291L6.25 11.7829C6.05 11.9829 5.81667 12.0829 5.55 12.0829C5.28333 12.0829 5.05 11.9829 4.85 11.7829L0.550001 7.48291C0.350001 7.28291 0.254168 7.04541 0.262501 6.77041C0.270834 6.49541 0.375001 6.25791 0.575001 6.05791C0.775001 5.85791 1.0125 5.75791 1.2875 5.75791C1.5625 5.75791 1.8 5.85791 2 6.05791L5.55 9.63291Z" fill="white"/>
</svg>
