<svg width="82" height="24" viewBox="0 0 82 24" fill="none" xmlns="http://www.w3.org/2000/svg">
<mask id="mask0_18168_6674" style="mask-type:alpha" maskUnits="userSpaceOnUse" x="0" y="0" width="25" height="24">
<rect x="0.499512" width="24" height="24" fill="#D9D9D9"/>
</mask>
<g mask="url(#mask0_18168_6674)">
<path d="M7.49951 21C6.94951 21 6.47868 20.8042 6.08701 20.4125C5.69535 20.0208 5.49951 19.55 5.49951 19V6C5.21618 6 4.97868 5.90417 4.78701 5.7125C4.59535 5.52083 4.49951 5.28333 4.49951 5C4.49951 4.71667 4.59535 4.47917 4.78701 4.2875C4.97868 4.09583 5.21618 4 5.49951 4H9.49951C9.49951 3.71667 9.59535 3.47917 9.78701 3.2875C9.97868 3.09583 10.2162 3 10.4995 3H14.4995C14.7828 3 15.0203 3.09583 15.212 3.2875C15.4037 3.47917 15.4995 3.71667 15.4995 4H19.4995C19.7828 4 20.0203 4.09583 20.212 4.2875C20.4037 4.47917 20.4995 4.71667 20.4995 5C20.4995 5.28333 20.4037 5.52083 20.212 5.7125C20.0203 5.90417 19.7828 6 19.4995 6V19C19.4995 19.55 19.3037 20.0208 18.912 20.4125C18.5203 20.8042 18.0495 21 17.4995 21H7.49951ZM7.49951 6V19H17.4995V6H7.49951ZM9.49951 16C9.49951 16.2833 9.59535 16.5208 9.78701 16.7125C9.97868 16.9042 10.2162 17 10.4995 17C10.7828 17 11.0203 16.9042 11.212 16.7125C11.4037 16.5208 11.4995 16.2833 11.4995 16V9C11.4995 8.71667 11.4037 8.47917 11.212 8.2875C11.0203 8.09583 10.7828 8 10.4995 8C10.2162 8 9.97868 8.09583 9.78701 8.2875C9.59535 8.47917 9.49951 8.71667 9.49951 9V16ZM13.4995 16C13.4995 16.2833 13.5953 16.5208 13.787 16.7125C13.9787 16.9042 14.2162 17 14.4995 17C14.7828 17 15.0203 16.9042 15.212 16.7125C15.4037 16.5208 15.4995 16.2833 15.4995 16V9C15.4995 8.71667 15.4037 8.47917 15.212 8.2875C15.0203 8.09583 14.7828 8 14.4995 8C14.2162 8 13.9787 8.09583 13.787 8.2875C13.5953 8.47917 13.4995 8.71667 13.4995 9V16Z" fill="#4589FF"/>
</g>
<path d="M43.1323 12.6797C43.1323 13.9661 42.8979 15.0417 42.4292 15.9062C41.9604 16.7656 41.2808 17.4141 40.3901 17.8516C39.5047 18.2839 38.4292 18.5 37.1636 18.5H34.062V7.07812H37.5073C38.6688 7.07812 39.6688 7.29167 40.5073 7.71875C41.3459 8.14062 41.9917 8.76823 42.4448 9.60156C42.9032 10.4297 43.1323 11.4557 43.1323 12.6797ZM41.7339 12.7266C41.7339 11.7005 41.562 10.8542 41.2183 10.1875C40.8797 9.52083 40.3797 9.02604 39.7183 8.70312C39.062 8.375 38.2573 8.21094 37.3042 8.21094H35.3901V17.3594H37.0073C38.5802 17.3594 39.7599 16.9714 40.5464 16.1953C41.3381 15.4193 41.7339 14.263 41.7339 12.7266ZM48.7729 9.78125C49.5021 9.78125 50.1271 9.94271 50.6479 10.2656C51.1688 10.5885 51.5672 11.0417 51.8433 11.625C52.1193 12.2031 52.2573 12.8802 52.2573 13.6562V14.4609H46.3433C46.3589 15.4661 46.6089 16.2318 47.0933 16.7578C47.5776 17.2839 48.2599 17.5469 49.1401 17.5469C49.6818 17.5469 50.161 17.4974 50.5776 17.3984C50.9943 17.2995 51.4266 17.1536 51.8745 16.9609V18.1016C51.4422 18.2943 51.0125 18.4349 50.5854 18.5234C50.1636 18.612 49.6636 18.6562 49.0854 18.6562C48.2625 18.6562 47.5438 18.4896 46.9292 18.1562C46.3198 17.8177 45.8459 17.3229 45.5073 16.6719C45.1688 16.0208 44.9995 15.224 44.9995 14.2812C44.9995 13.3594 45.1532 12.5625 45.4604 11.8906C45.7729 11.2135 46.2104 10.6927 46.7729 10.3281C47.3407 9.96354 48.0073 9.78125 48.7729 9.78125ZM48.7573 10.8438C48.0646 10.8438 47.5125 11.0703 47.1011 11.5234C46.6896 11.9766 46.4448 12.6094 46.3667 13.4219H50.8979C50.8927 12.9115 50.812 12.4635 50.6558 12.0781C50.5047 11.6875 50.2729 11.3854 49.9604 11.1719C49.6479 10.9531 49.2469 10.8438 48.7573 10.8438ZM55.7651 18.5H54.4604V6.34375H55.7651V18.5ZM61.8042 9.78125C62.5334 9.78125 63.1584 9.94271 63.6792 10.2656C64.2 10.5885 64.5985 11.0417 64.8745 11.625C65.1506 12.2031 65.2886 12.8802 65.2886 13.6562V14.4609H59.3745C59.3901 15.4661 59.6401 16.2318 60.1245 16.7578C60.6089 17.2839 61.2912 17.5469 62.1714 17.5469C62.7131 17.5469 63.1922 17.4974 63.6089 17.3984C64.0256 17.2995 64.4578 17.1536 64.9058 16.9609V18.1016C64.4735 18.2943 64.0438 18.4349 63.6167 18.5234C63.1948 18.612 62.6948 18.6562 62.1167 18.6562C61.2938 18.6562 60.575 18.4896 59.9604 18.1562C59.3511 17.8177 58.8771 17.3229 58.5386 16.6719C58.2 16.0208 58.0308 15.224 58.0308 14.2812C58.0308 13.3594 58.1844 12.5625 58.4917 11.8906C58.8042 11.2135 59.2417 10.6927 59.8042 10.3281C60.3719 9.96354 61.0386 9.78125 61.8042 9.78125ZM61.7886 10.8438C61.0959 10.8438 60.5438 11.0703 60.1323 11.5234C59.7209 11.9766 59.4761 12.6094 59.3979 13.4219H63.9292C63.924 12.9115 63.8433 12.4635 63.687 12.0781C63.536 11.6875 63.3042 11.3854 62.9917 11.1719C62.6792 10.9531 62.2782 10.8438 61.7886 10.8438ZM70.2573 17.5938C70.4709 17.5938 70.6896 17.5755 70.9136 17.5391C71.1375 17.5026 71.3198 17.4583 71.4604 17.4062V18.4141C71.3094 18.4818 71.0985 18.5391 70.8276 18.5859C70.562 18.6328 70.3016 18.6562 70.0464 18.6562C69.5933 18.6562 69.1818 18.5781 68.812 18.4219C68.4422 18.2604 68.1453 17.9896 67.9214 17.6094C67.7026 17.2292 67.5933 16.7031 67.5933 16.0312V10.9531H66.3745V10.3203L67.6011 9.8125L68.1167 7.95312H68.8979V9.9375H71.4058V10.9531H68.8979V15.9922C68.8979 16.5286 69.0203 16.9297 69.2651 17.1953C69.5151 17.4609 69.8459 17.5938 70.2573 17.5938ZM76.4917 9.78125C77.2209 9.78125 77.8459 9.94271 78.3667 10.2656C78.8875 10.5885 79.286 11.0417 79.562 11.625C79.8381 12.2031 79.9761 12.8802 79.9761 13.6562V14.4609H74.062C74.0776 15.4661 74.3276 16.2318 74.812 16.7578C75.2964 17.2839 75.9787 17.5469 76.8589 17.5469C77.4006 17.5469 77.8797 17.4974 78.2964 17.3984C78.7131 17.2995 79.1453 17.1536 79.5933 16.9609V18.1016C79.161 18.2943 78.7313 18.4349 78.3042 18.5234C77.8823 18.612 77.3823 18.6562 76.8042 18.6562C75.9813 18.6562 75.2625 18.4896 74.6479 18.1562C74.0386 17.8177 73.5646 17.3229 73.2261 16.6719C72.8875 16.0208 72.7183 15.224 72.7183 14.2812C72.7183 13.3594 72.8719 12.5625 73.1792 11.8906C73.4917 11.2135 73.9292 10.6927 74.4917 10.3281C75.0594 9.96354 75.7261 9.78125 76.4917 9.78125ZM76.4761 10.8438C75.7834 10.8438 75.2313 11.0703 74.8198 11.5234C74.4084 11.9766 74.1636 12.6094 74.0854 13.4219H78.6167C78.6115 12.9115 78.5308 12.4635 78.3745 12.0781C78.2235 11.6875 77.9917 11.3854 77.6792 11.1719C77.3667 10.9531 76.9657 10.8438 76.4761 10.8438Z" fill="#2A3647"/>
</svg>
