<svg width="62" height="24" viewBox="0 0 62 24" fill="none" xmlns="http://www.w3.org/2000/svg">
<mask id="mask0_16776_5148" style="mask-type:alpha" maskUnits="userSpaceOnUse" x="0" y="0" width="25" height="24">
<rect x="0.499512" width="24" height="24" fill="#D9D9D9"/>
</mask>
<g mask="url(#mask0_16776_5148)">
<path d="M5.49951 19H6.89951L15.5245 10.375L14.1245 8.975L5.49951 17.6V19ZM19.7995 8.925L15.5495 4.725L16.9495 3.325C17.3328 2.94167 17.8037 2.75 18.362 2.75C18.9203 2.75 19.3912 2.94167 19.7745 3.325L21.1745 4.725C21.5578 5.10833 21.7578 5.57083 21.7745 6.1125C21.7912 6.65417 21.6078 7.11667 21.2245 7.5L19.7995 8.925ZM18.3495 10.4L7.74951 21H3.49951V16.75L14.0995 6.15L18.3495 10.4Z" fill="#4589FF"/>
</g>
<path d="M40.4214 18.5H34.062V7.07812H40.4214V8.25H35.3901V11.9453H40.1323V13.1016H35.3901V17.3281H40.4214V18.5ZM45.8042 18.6562C44.7209 18.6562 43.8615 18.2865 43.2261 17.5469C42.5959 16.8073 42.2808 15.7083 42.2808 14.25C42.2808 12.776 42.6037 11.6641 43.2495 10.9141C43.8953 10.1589 44.7547 9.78125 45.8276 9.78125C46.2808 9.78125 46.6766 9.84115 47.0151 9.96094C47.3537 10.0807 47.6453 10.2422 47.8901 10.4453C48.1349 10.6432 48.3407 10.8698 48.5073 11.125H48.6011C48.5802 10.9635 48.5594 10.7422 48.5386 10.4609C48.5177 10.1797 48.5073 9.95052 48.5073 9.77344V6.34375H49.8042V18.5H48.7573L48.562 17.2812H48.5073C48.3459 17.5365 48.1401 17.7682 47.8901 17.9766C47.6453 18.1849 47.3511 18.3516 47.0073 18.4766C46.6688 18.5964 46.2677 18.6562 45.8042 18.6562ZM46.0073 17.5781C46.924 17.5781 47.5724 17.3177 47.9526 16.7969C48.3328 16.276 48.5229 15.5026 48.5229 14.4766V14.2422C48.5229 13.1536 48.3407 12.3177 47.9761 11.7344C47.6167 11.151 46.9604 10.8594 46.0073 10.8594C45.2104 10.8594 44.6141 11.1667 44.2183 11.7812C43.8224 12.3906 43.6245 13.224 43.6245 14.2812C43.6245 15.3333 43.8198 16.1458 44.2104 16.7188C44.6063 17.2917 45.2052 17.5781 46.0073 17.5781ZM53.8511 9.9375V18.5H52.5542V9.9375H53.8511ZM53.2183 6.73438C53.4318 6.73438 53.6141 6.80469 53.7651 6.94531C53.9214 7.08073 53.9995 7.29427 53.9995 7.58594C53.9995 7.8724 53.9214 8.08594 53.7651 8.22656C53.6141 8.36719 53.4318 8.4375 53.2183 8.4375C52.9943 8.4375 52.8068 8.36719 52.6558 8.22656C52.5099 8.08594 52.437 7.8724 52.437 7.58594C52.437 7.29427 52.5099 7.08073 52.6558 6.94531C52.8068 6.80469 52.9943 6.73438 53.2183 6.73438ZM59.3667 17.5938C59.5802 17.5938 59.799 17.5755 60.0229 17.5391C60.2469 17.5026 60.4292 17.4583 60.5698 17.4062V18.4141C60.4188 18.4818 60.2078 18.5391 59.937 18.5859C59.6714 18.6328 59.411 18.6562 59.1558 18.6562C58.7026 18.6562 58.2912 18.5781 57.9214 18.4219C57.5516 18.2604 57.2547 17.9896 57.0308 17.6094C56.812 17.2292 56.7026 16.7031 56.7026 16.0312V10.9531H55.4839V10.3203L56.7104 9.8125L57.2261 7.95312H58.0073V9.9375H60.5151V10.9531H58.0073V15.9922C58.0073 16.5286 58.1297 16.9297 58.3745 17.1953C58.6245 17.4609 58.9552 17.5938 59.3667 17.5938Z" fill="#2A3647"/>
</svg>
